<svg xmlns="http://www.w3.org/2000/svg" width="32" height="32" fill="none" viewBox="0 0 32 32">
    <path stroke="#000" stroke-linejoin="round" stroke-opacity=".65" stroke-width="2" d="M9.333 9.067c0-.958-.895-1.734-2-1.734-1.104 0-2 .776-2 1.734v13.866c0 .957.896 1.734 2 1.734 1.105 0 2-.777 2-1.734V9.067zM26.667 9.067c0-.958-.896-1.734-2-1.734-1.105 0-2 .776-2 1.734v13.866c0 .957.895 1.734 2 1.734 1.104 0 2-.777 2-1.734V9.067zM5.333 12.444c0-.981-.895-1.777-2-1.777-1.104 0-2 .796-2 1.777v7.112c0 .982.896 1.777 2 1.777 1.105 0 2-.795 2-1.777v-7.112zM30.667 12.444c0-.981-.896-1.777-2-1.777-1.105 0-2 .796-2 1.777v7.112c0 .982.895 1.777 2 1.777 1.104 0 2-.795 2-1.777v-7.112zM22.667 18H9.333v-4h13.334v4z"/>
</svg>
