<svg xmlns="http://www.w3.org/2000/svg" width="80" height="80" fill="none" viewBox="0 0 80 80">
    <path fill="#EE513B" d="M1.672 44.038c-2.23-2.23-2.23-5.846 0-8.076l34.29-34.29c2.23-2.23 5.846-2.23 8.076 0l34.29 34.29c2.23 2.23 2.23 5.846 0 8.076l-34.29 34.29c-2.23 2.23-5.846 2.23-8.076 0l-34.29-34.29z"/>
    <path fill="#fff" d="M28.998 14.101l-3.472 2.925 8.968 7.552c-.363.656-.565 1.387-.565 2.158 0 2.188 1.633 4.056 3.928 4.785v18.476c-2.295.73-3.928 2.597-3.928 4.785 0 2.824 2.718 5.113 6.071 5.113 3.353 0 6.072-2.289 6.072-5.113 0-1.984-1.342-3.704-3.304-4.552V31.546l8.573 7.22c-.345.642-.537 1.355-.537 2.106 0 2.824 2.718 5.113 6.071 5.113 3.353 0 6.072-2.29 6.072-5.113 0-2.824-2.719-5.113-6.072-5.113-.651 0-1.279.086-1.867.246L45.8 28.251c.177-.479.272-.988.272-1.515 0-2.824-2.719-5.113-6.072-5.113-.626 0-1.23.08-1.8.228l-9.202-7.75z"/>
</svg>
