<svg xmlns="http://www.w3.org/2000/svg" width="80" height="80" fill="none" viewBox="0 0 80 80">
    <circle cx="40" cy="40" r="40" fill="#0769AD"/>
    <path fill="#78CFF5" d="M59.02 32.632c3.592 0 6.88-1.198 9.423-3.185-2.64 3.478-7.012 5.752-11.96 5.752-8.06 0-14.595-6.034-14.595-13.477 0-4.128 2.009-7.821 5.172-10.294-1.66 2.188-2.634 4.852-2.634 7.726 0 7.444 6.534 13.478 14.595 13.478z"/>
    <path fill="#78CFF5" d="M68.304 41.882c-3.872 3.037-8.885 4.869-14.36 4.869-12.266 0-22.21-9.195-22.21-20.537 0-4.4 1.496-8.475 4.044-11.817-4.803 3.767-7.85 9.388-7.85 15.668 0 11.342 9.943 20.537 22.209 20.537 7.509 0 14.147-3.446 18.167-8.72z"/>
    <path fill="#78CFF5" d="M68.571 53.629c-5.517 5.265-13.16 8.525-21.607 8.525-16.822 0-30.459-12.93-30.459-28.88 0-5.055 1.37-9.806 3.775-13.938-5.47 5.221-8.851 12.414-8.851 20.355 0 15.95 13.637 28.88 30.459 28.88 11.491 0 21.497-6.034 26.683-14.942z"/>
</svg>
