<svg xmlns="http://www.w3.org/2000/svg" width="80" height="81" fill="none" viewBox="0 0 80 81">
    <path fill="#FFCA28" d="M5 5.399H75V75.686H5z"/>
    <path fill="#3E3E3E" d="M47.5 63.857l5.154-3.425c.404 1.275 2.961 4.3 6.192 4.3 3.23 0 4.73-1.771 4.73-2.946 0-3.2-3.298-4.33-4.883-4.872-.258-.088-.47-.16-.616-.224-.075-.033-.188-.076-.332-.132-1.763-.676-8.264-3.17-8.264-10.4 0-7.963 7.654-8.879 9.384-8.879 1.133 0 6.577.14 9.289 5.256l-5 3.504c-1.096-2.23-2.918-2.967-4.039-2.967-2.769 0-3.346 2.039-3.346 2.967 0 2.603 3.009 3.77 5.55 4.756.664.258 1.297.503 1.835.758C65.924 52.867 70 55.017 70 61.786c0 3.39-2.832 8.88-9.962 8.88-9.576 0-12.115-5.774-12.538-6.81zM22.5 64.537l5.372-3.423c.42 1.274 2.056 3.622 4.43 3.622 2.373 0 3.587-2.448 3.587-3.622V38.032h6.606v23.082c.107 3.184-1.651 9.551-9.412 9.551-7.135 0-10.102-4.258-10.583-6.128z"/>
</svg>
