<svg xmlns="http://www.w3.org/2000/svg" width="32" height="32" fill="none" viewBox="0 0 32 32">
    <path stroke="#000" stroke-linecap="round" stroke-linejoin="round" stroke-opacity=".65" stroke-width="2" d="M6.667 24v-8c0-5.155 4.178-9.333 9.333-9.333s9.333 4.178 9.333 9.333v8H6.667zm0-6.667H4c-.736 0-1.333.597-1.333 1.334V24c0 .736.597 1.333 1.333 1.333h2.667v-8zm18.666 0H28c.736 0 1.333.597 1.333 1.334V24c0 .736-.597 1.333-1.333 1.333h-2.667v-8z"/>
    <path stroke="#000" stroke-linecap="round" stroke-linejoin="round" stroke-opacity=".65" stroke-width="2" d="M10.667 17.333h2.666l1.334-4 2.666 8 1.334-4h2.666"/>
</svg>
