<svg xmlns="http://www.w3.org/2000/svg" width="80" height="81" fill="none" viewBox="0 0 80 81">
    <path fill="#8CC84B" d="M42.931 6.149c-1.774-1.002-4.088-.998-5.864 0-8.895 4.929-17.79 9.86-26.687 14.786-1.73.915-2.898 2.781-2.88 4.719v29.781c-.012 1.976 1.216 3.86 2.991 4.762 2.556 1.365 5.039 2.87 7.64 4.143 3.005 1.483 6.765 1.81 9.807.265 2.47-1.282 3.566-4.132 3.563-6.752.02-9.828.003-19.657.008-29.486.058-.437-.268-.904-.743-.893-1.137-.018-2.275-.01-3.412-.003-.43-.041-.848.317-.816.75-.015 9.766.003 19.534-.01 29.301.026 1.351-.883 2.65-2.18 3.106-2.995 1.054-11.543-4.519-11.543-4.519-.314-.146-.513-.487-.482-.827V25.807c-.043-.397.2-.753.562-.915 8.866-4.9 17.727-9.812 26.593-14.715.308-.207.737-.206 1.044.001 8.866 4.902 17.729 9.81 26.596 14.71.364.161.596.524.56.918-.002 9.825.002 19.65-.004 29.475.026.348-.152.684-.476.837-8.783 4.873-17.666 9.59-26.37 14.605-.38.218-.81.466-1.235.225-2.289-1.271-4.55-2.592-6.83-3.875-.249-.156-.564-.222-.823-.048-1.023.54-1.985.98-3.16 1.446-1.65.656-1.385.924.102 1.794 2.668 1.516 5.34 3.026 8.008 4.544 1.756 1.1 4.116 1.178 5.929.161 8.896-4.922 17.79-9.851 26.688-14.774 1.771-.907 3.005-2.784 2.993-4.761V25.654c.017-1.898-1.106-3.732-2.785-4.66C60.789 16.041 51.859 11.1 42.931 6.15z"/>
    <path fill="#8CC84B" d="M56.355 28.509c-3.492-1.876-7.646-1.976-11.526-1.73-2.803.277-5.752 1.054-7.794 3.072-2.095 2.028-2.55 5.304-1.556 7.952.713 1.87 2.508 3.087 4.364 3.731 2.39.847 4.902 1.11 7.413 1.372 2.291.239 4.583.478 6.785 1.161.9.3 1.947.758 2.223 1.74.254 1.164-.025 2.517-.966 3.325-2.989 2.376-11.303 2.012-14.257.142-1.194-.796-1.708-2.206-1.917-3.55-.024-.419-.36-.803-.812-.771-1.134-.014-2.267-.01-3.401-.002-.396-.033-.807.25-.829.655-.233 6.154 5.396 8.837 10.678 9.428 3.017.289 6.1.272 9.072-.378 2.233-.51 4.473-1.45 6.01-3.178 1.896-2.1 2.269-5.225 1.419-7.84-.65-1.951-2.508-3.203-4.407-3.846-2.582-.89-5.643-1.367-7.982-1.591-3.4-.325-7.44-.193-8.402-2.436-.384-1.174-.057-2.633 1.018-3.355 2.844-1.937 8.633-1.68 11.578-.233 1.353.68 2.137 2.077 2.46 3.487.06.414.337.846.815.828 1.126.023 2.252.006 3.378.008.386.027.81-.192.886-.59-.048-2.947-1.547-5.964-4.25-7.401z"/>
</svg>
