<svg xmlns="http://www.w3.org/2000/svg" width="80" height="80" fill="none" viewBox="0 0 80 80">
    <path fill="#53C1DE" d="M46.697 39.94c0-3.586-2.998-6.494-6.697-6.494s-6.697 2.908-6.697 6.494S36.3 46.434 40 46.434s6.697-2.908 6.697-6.494z"/>
    <path fill="#53C1DE" fill-rule="evenodd" d="M61.75 27.884c1.415-5.572 3.193-15.905-3.074-19.409-6.238-3.488-14.355 3.196-18.641 7.208-4.274-3.972-12.62-10.627-18.88-7.113-6.236 3.5-4.313 13.662-2.868 19.27C12.471 29.44 2.5 32.89 2.5 39.94c0 7.029 9.96 10.782 15.742 12.382-1.45 5.639-3.277 15.655 2.966 19.147 6.285 3.514 14.605-2.983 18.93-7.038 4.314 4.035 12.354 10.574 18.592 7.073 6.26-3.513 4.629-13.708 3.183-19.348C67.518 50.553 77.5 46.881 77.5 39.94c0-6.981-10.024-10.46-15.75-12.056zm-.71 21.283c-.949-2.913-2.23-6.011-3.797-9.212 1.496-3.125 2.727-6.183 3.65-9.078 4.197 1.18 13.403 3.876 13.403 9.063 0 5.235-8.834 7.957-13.255 9.227zm-3.915 19.648c-4.655 2.612-11.57-3.64-14.755-6.613 2.113-2.241 4.225-4.846 6.286-7.74 3.626-.312 7.052-.822 10.158-1.518 1.018 3.99 2.987 13.247-1.69 15.871zm-34.316-.037c-4.655-2.603-2.528-11.541-1.46-15.695 3.072.66 6.472 1.133 10.107 1.419 2.075 2.831 4.248 5.433 6.438 7.712-2.706 2.538-10.408 9.178-15.085 6.564zM5.704 39.94c0-5.255 9.151-7.932 13.444-9.108.938 2.96 2.17 6.054 3.655 9.183-1.505 3.176-2.754 6.32-3.7 9.315-4.094-1.136-13.4-4.132-13.4-9.39zm17.055-28.681c4.675-2.624 11.928 3.766 15.03 6.641-2.178 2.269-4.331 4.852-6.388 7.666-3.527.317-6.904.826-10.008 1.508-1.165-4.522-3.303-13.195 1.366-15.815zm28.19 17.684c2.392.293 4.685.682 6.838 1.159-.646 2.008-1.452 4.108-2.4 6.261-1.376-2.53-2.852-5.009-4.439-7.42zM40.035 20.12c1.478 1.552 2.958 3.286 4.413 5.166-2.953-.135-5.91-.136-8.864-.002 1.457-1.863 2.95-3.594 4.45-5.164zM24.64 36.361c-.933-2.145-1.731-4.255-2.383-6.292 2.14-.465 4.422-.844 6.8-1.132-1.591 2.406-3.065 4.884-4.417 7.424zm4.485 14.803c-2.456-.266-4.773-.626-6.912-1.077.662-2.073 1.478-4.228 2.43-6.42 1.371 2.566 2.867 5.069 4.482 7.497zm10.998 8.815c-1.518-1.59-3.033-3.346-4.512-5.236 2.97.113 5.946.113 8.915-.015-1.46 1.924-2.935 3.684-4.403 5.25zm15.293-16.423c1.002 2.215 1.847 4.358 2.518 6.396-2.174.482-4.522.869-6.996 1.157 1.599-2.457 3.098-4.975 4.478-7.553zm-8.549 7.93c-4.543.314-9.114.31-13.659.025-2.582-3.657-4.88-7.504-6.865-11.497 1.975-3.984 4.257-7.823 6.827-11.475 4.548-.333 9.124-.334 13.671.002 2.548 3.652 4.827 7.48 6.847 11.43-1.996 3.982-4.29 7.829-6.82 11.514zm10.208-40.32c4.675 2.615 2.594 11.902 1.573 15.94-3.112-.696-6.49-1.214-10.028-1.536-2.061-2.845-4.197-5.432-6.34-7.671 3.143-2.938 10.164-9.322 14.795-6.733z" clip-rule="evenodd"/>
</svg>
