<?xml version="1.0" encoding="utf-8"?>
<!-- Generator: Adobe Illustrator 16.0.0, SVG Export Plug-In . SVG Version: 6.00 Build 0)  -->
<!DOCTYPE svg PUBLIC "-//W3C//DTD SVG 1.1//EN" "http://www.w3.org/Graphics/SVG/1.1/DTD/svg11.dtd">
<svg version="1.1" id="Layer_1" xmlns="http://www.w3.org/2000/svg" xmlns:xlink="http://www.w3.org/1999/xlink" x="0px" y="0px"
	 width="277.5px" height="300.5px" viewBox="0 0 277.5 300.5" enable-background="new 0 0 277.5 300.5" xml:space="preserve">
<path fill="none" stroke="#000000" stroke-width="7" stroke-miterlimit="10" d="M139,5.333c87.445,0,134.334,56.888,134.334,144.333
	C273.334,237.111,220,296,139,296C56,296,4.667,237.111,4.667,149.667C4.667,62.221,51.555,5.333,139,5.333"/>
<circle fill="none" stroke="#000000" stroke-width="7" stroke-miterlimit="10" cx="79.692" cy="184.333" r="42.308"/>
<circle fill="none" stroke="#000000" stroke-width="7" stroke-miterlimit="10" cx="198.692" cy="184.333" r="42.308"/>
<path fill="none" stroke="#000000" stroke-width="7" stroke-miterlimit="10" d="M114.718,258.641c0,0,23.946,6.41,48.949,0"/>
<path fill="none" stroke="#000000" stroke-width="7" stroke-miterlimit="10" d="M156.051,184.488c0,0-16.495-6.41-33.717,0"/>
<path fill="none" stroke="#000000" stroke-width="7" stroke-miterlimit="10" d="M4.667,149.667c106.802,0,159-62,159-62
	s32.333,62,109.667,62"/>
</svg>
