<svg xmlns="http://www.w3.org/2000/svg" width="248" height="243" fill="none" viewBox="0 0 248 243">
    <path fill="#D99E82" d="M124.533 139.843c-65.895 0-119.31-1.582-119.31 45.194 0 46.754 53.415 57.394 119.31 57.394 65.896 0 119.31-10.64 119.31-57.394 0-46.769-53.414-45.194-119.31-45.194z"/>
    <path fill="#662113" d="M240.352 143.394s-57.795-6.919-115.814-7.215c-58.02.296-115.815 7.215-115.815 7.215-5.717 45.524 41.748 64.278 115.815 64.278 74.066 0 121.531-18.754 115.814-64.278z"/>
    <path fill="#FFCC4D" d="M236.252 125.195l-224 4.543c-7.735 0-14.211 15.674-6.005 19.774 61.233 19.042 110.456 38.309 110.456 38.309 6.765 3.741 9.05 3.755 15.822.021 0 0 67.97-27.199 111.631-38.626 6.195-1.617-.176-24.021-7.904-24.021z"/>
    <path fill="#77B255" d="M242.147 125.786c-13.36-12.313-12.587-5.759-22.825-8.649-3.889-1.097-31.714-37.065-95.134-37.065h-.141c-63.42 0-91.245 35.968-95.134 37.065-10.239 2.89-9.465-3.664-22.826 8.649-6.131 5.654-7.79 8.593-1.321 10.055 9.746 2.201 8.86 8.101 15.842 10.155 8.453 2.482 11.926-2.054 25.554-.197 11.624 1.582 12.383 16.658 24.112 16.658 11.73 0 11.73-5.625 23.452-5.625 11.722 0 18.655 15.09 30.384 15.09s18.656-15.09 30.385-15.09c11.729 0 11.729 5.625 23.451 5.625 11.729 0 12.489-15.076 24.113-16.658 13.627-1.85 17.108 2.679 25.553.197 6.983-2.054 6.097-7.947 15.843-10.155 6.484-1.455 4.831-4.401-1.308-10.055z"/>
    <path fill="#DD2E44" d="M237.589 112.481c0 20.984-50.615 30.891-113.051 30.891s-113.051-9.907-113.051-30.891c0-37.993 6.792-37.993 113.051-37.993 106.258 0 113.051.007 113.051 37.993z"/>
    <path fill="#D99E82" d="M124.533 0C58.638 0 5.223 30.877 5.223 77.646c0 43.07 53.415 44.828 119.31 44.828 65.896 0 119.31-1.758 119.31-44.828C243.843 30.87 190.429 0 124.533 0z"/>
    <path fill="#FFE8B6" d="M73.8 22.298c-3.503-2.243-8.15-1.216-10.387 2.286-2.236 3.502-1.216 8.157 2.285 10.386 3.502 2.243 12.376 3.916 14.62.415 2.236-3.502-3.017-10.85-6.519-13.087zm68.447-7.278c-3.952 1.28-10.892 7.074-9.605 11.026 1.287 3.952 10.294 4.557 14.246 3.277 3.952-1.28 6.111-5.527 4.824-9.479-1.28-3.945-5.527-6.11-9.465-4.824zm76.711 49.47c-3.179-2.673-11.146 1.582-13.825 4.76-2.672 3.186-2.257 7.925.921 10.597 3.179 2.672 7.925 2.257 10.597-.921 2.68-3.186 5.492-11.764 2.307-14.437zm-25.617-35.16c-3.502-2.236-8.15-1.21-10.393 2.293-2.236 3.501-1.21 8.15 2.292 10.386 3.502 2.243 12.376 3.916 14.612.414 2.243-3.508-3.009-10.857-6.511-13.093zM87.863 78.553c-3.502-2.236-8.15-1.21-10.393 2.293-2.236 3.494-1.21 8.15 2.292 10.379 3.502 2.243 12.376 3.923 14.612.415 2.244-3.502-3.01-10.85-6.511-13.087zm21.419-33.809c-2.363 3.417-4.36 12.228-.935 14.591 3.417 2.363 10.948-2.63 13.311-6.047 2.363-3.418 1.498-8.101-1.92-10.464-3.41-2.362-8.1-1.497-10.456 1.92zm55.931 33.81c-3.502-2.237-8.15-1.21-10.393 2.292-2.236 3.494-1.209 8.156 2.293 10.379 3.501 2.243 12.376 3.923 14.612.415 2.243-3.502-3.01-10.85-6.512-13.087zM32.761 51.22c-2.77 3.101-5.858 11.589-2.756 14.36 3.087 2.77 11.187-1.224 13.958-4.325 2.777-3.094 2.51-7.848-.584-10.625-3.087-2.77-7.847-2.504-10.618.59z"/>
</svg>
