<svg xmlns="http://www.w3.org/2000/svg" width="101" height="38" fill="none" viewBox="0 0 101 38">
    <path fill="#fff" d="M.98 12h1.687V7.744h4.774V12h1.68V1.92h-1.68v4.242H2.667V1.92H.98V12zM60.98 12h1.708V4.895L67.364 12h1.708V1.92h-1.708v7.105L62.688 1.92H60.98V12zM95.138 12.21c.975 0 1.813-.21 2.513-.63.7-.425 1.237-1.006 1.61-1.743.378-.737.567-1.582.567-2.534 0-.028-.002-.114-.007-.259-.005-.145-.012-.254-.021-.329h-3.57v1.323h1.778c-.13.868-.434 1.519-.91 1.953-.476.43-1.094.64-1.855.63-1.013-.014-1.773-.352-2.282-1.015-.509-.663-.76-1.545-.756-2.646.005-.737.119-1.381.343-1.932.224-.55.56-.978 1.008-1.281.448-.303 1.01-.45 1.687-.441.667.005 1.218.184 1.652.539.439.355.754.83.945 1.428L99.562 5c-.257-1.036-.749-1.843-1.477-2.422-.723-.579-1.706-.868-2.947-.868-.896 0-1.701.208-2.415.623-.71.415-1.272 1.015-1.687 1.799-.41.784-.616 1.727-.616 2.828 0 1.12.21 2.072.63 2.856.425.78.994 1.374 1.708 1.785.714.406 1.507.609 2.38.609zM.98 36h1.687v-3.521h2.478c.093 0 .217-.005.371-.014.159-.01.303-.023.434-.042.868-.135 1.512-.497 1.932-1.085.425-.593.637-1.304.637-2.135 0-.835-.21-1.547-.63-2.135-.415-.593-1.062-.957-1.939-1.092-.13-.023-.273-.037-.427-.042-.154-.01-.28-.014-.378-.014H.98V36zm1.687-5.096v-3.402h2.408c.093 0 .198.005.315.014.117.01.224.026.322.049.28.07.5.196.658.378.163.177.278.378.343.602.07.224.105.443.105.658 0 .215-.035.434-.105.658-.065.224-.18.425-.343.602-.159.177-.378.301-.658.371-.098.028-.205.047-.322.056-.117.01-.222.014-.315.014H2.667zm14.517 5.306c1.008 0 1.872-.22 2.59-.658.724-.443 1.277-1.06 1.66-1.848.387-.789.58-1.703.58-2.744 0-1.045-.193-1.96-.58-2.744-.383-.789-.936-1.402-1.66-1.841-.718-.443-1.582-.665-2.59-.665-1.003 0-1.866.222-2.59.665-.718.439-1.271 1.052-1.659 1.841-.382.784-.574 1.699-.574 2.744 0 1.04.192 1.955.574 2.744.388.789.94 1.405 1.66 1.848.723.439 1.586.658 2.59.658zm0-1.589c-1.012-.014-1.773-.352-2.282-1.015-.508-.663-.76-1.545-.756-2.646.005-.737.12-1.381.343-1.932.224-.55.56-.978 1.008-1.281.448-.308 1.01-.457 1.687-.448 1.018.014 1.778.352 2.282 1.015.51.663.763 1.545.763 2.646 0 .733-.114 1.377-.343 1.932-.224.55-.562.978-1.015 1.281-.448.303-1.01.453-1.687.448zM26.408 36h1.687v-3.521h2.394L32.197 36h1.91l-1.861-3.822c.574-.257 1-.646 1.28-1.169s.42-1.125.42-1.806c0-.835-.21-1.547-.63-2.135-.415-.593-1.06-.957-1.938-1.092-.13-.023-.273-.037-.427-.042-.154-.01-.28-.014-.378-.014h-4.165V36zm1.687-5.096v-3.402h2.408c.093 0 .198.005.315.014.116.01.224.026.322.049.28.07.5.196.658.378.163.177.277.378.343.602.07.224.105.443.105.658 0 .215-.035.434-.105.658-.066.224-.18.425-.343.602-.159.177-.378.301-.658.371-.098.028-.206.047-.322.056-.117.01-.222.014-.315.014h-2.408zM41.072 36h1.687v-8.498h3.262V25.92H37.81v1.582h3.262V36zm9.068 0h1.687v-4.2h3.542v-1.68h-3.542v-2.513h4.382V25.92H50.14V36zm14.591.21c1.008 0 1.872-.22 2.59-.658.724-.443 1.277-1.06 1.66-1.848.387-.789.58-1.703.58-2.744 0-1.045-.193-1.96-.58-2.744-.383-.789-.936-1.402-1.66-1.841-.718-.443-1.582-.665-2.59-.665-1.003 0-1.866.222-2.59.665-.718.439-1.271 1.052-1.659 1.841-.382.784-.574 1.699-.574 2.744 0 1.04.192 1.955.574 2.744.388.789.94 1.405 1.66 1.848.723.439 1.586.658 2.59.658zm0-1.589c-1.012-.014-1.773-.352-2.282-1.015-.508-.663-.76-1.545-.756-2.646.005-.737.12-1.381.343-1.932.224-.55.56-.978 1.008-1.281.448-.308 1.01-.457 1.687-.448 1.018.014 1.778.352 2.282 1.015.509.663.763 1.545.763 2.646 0 .733-.114 1.377-.343 1.932-.224.55-.562.978-1.015 1.281-.448.303-1.01.453-1.687.448zM74.095 36h6.139v-1.582h-4.452V25.92h-1.687V36zm10.465 0h1.686V25.92H84.56V36zm11.046.21c1.008 0 1.872-.22 2.59-.658.724-.443 1.277-1.06 1.66-1.848.387-.789.58-1.703.58-2.744 0-1.045-.193-1.96-.58-2.744-.383-.789-.936-1.402-1.66-1.841-.718-.443-1.582-.665-2.59-.665-1.003 0-1.866.222-2.59.665-.718.439-1.271 1.052-1.659 1.841-.382.784-.574 1.699-.574 2.744 0 1.04.192 1.955.574 2.744.388.789.94 1.405 1.66 1.848.723.439 1.586.658 2.59.658zm0-1.589c-1.012-.014-1.773-.352-2.282-1.015-.508-.663-.76-1.545-.756-2.646.005-.737.12-1.381.343-1.932.224-.55.56-.978 1.008-1.281.448-.308 1.01-.457 1.687-.448 1.018.014 1.778.352 2.282 1.015.509.663.763 1.545.763 2.646 0 .733-.114 1.377-.343 1.932-.224.55-.562.978-1.015 1.281-.448.303-1.01.453-1.687.448z"/>
    <path fill-rule="evenodd" stroke="#fff" stroke-linecap="round" stroke-linejoin="round" d="M40.917 5.958c0-2.692-2.425-4.875-5.417-4.875s-5.417 2.183-5.417 4.875h10.834z" clip-rule="evenodd"/>
    <path stroke="#fff" stroke-linecap="round" stroke-linejoin="round" d="M40.917 10.291H30.083v1.625h10.834v-1.625zM30.083 7.583l1.478 1.084 1.97-1.083L35.5 8.666l1.97-1.083 1.97 1.083 1.477-1.083"/>
</svg>
