<svg xmlns="http://www.w3.org/2000/svg" width="60" height="51" fill="none" viewBox="0 0 60 51">
    <g clip-path="url(#clip0)" opacity=".3">
        <path fill="#1337B1" fill-rule="evenodd" d="M59.737 7.965c-8.947 4.425-13.42 9.625-13.42 15.599 3.813.442 6.966 2.01 9.46 4.702 2.493 2.692 3.74 5.808 3.74 9.348 0 3.761-1.21 6.933-3.63 9.514-2.42 2.581-5.464 3.872-9.13 3.872-4.108 0-7.665-1.678-10.671-5.034-3.007-3.355-4.51-7.43-4.51-12.224 0-14.382 7.993-25.63 23.98-33.742l4.18 7.965zm-31.575 0C19.142 12.39 14.63 17.59 14.63 23.564c3.887.442 7.077 2.01 9.57 4.702 2.494 2.692 3.74 5.808 3.74 9.348 0 3.761-1.228 6.933-3.685 9.514C21.8 49.709 18.738 51 15.071 51c-4.107 0-7.646-1.678-10.616-5.034C1.485 42.611 0 38.536 0 33.742 0 19.36 7.957 8.112 23.871 0l4.29 7.965z" clip-rule="evenodd"/>
    </g>
    <defs>
        <clipPath id="clip0">
            <path fill="#fff" d="M0 0H60V51H0z"/>
        </clipPath>
    </defs>
</svg>
