<svg xmlns="http://www.w3.org/2000/svg" width="60" height="51" fill="none" viewBox="0 0 60 51">
    <g clip-path="url(#clip0)" opacity=".3">
        <path fill="#1337B1" fill-rule="evenodd" d="M.263 43.035c8.947-4.425 13.42-9.625 13.42-15.599-3.813-.442-6.966-2.01-9.46-4.702-2.493-2.692-3.74-5.808-3.74-9.348 0-3.761 1.21-6.933 3.63-9.514C6.533 1.291 9.577 0 13.243 0c4.108 0 7.665 1.678 10.671 5.034 3.007 3.355 4.51 7.43 4.51 12.224 0 14.382-7.993 25.63-23.98 33.742l-4.18-7.965zm31.575 0c9.02-4.425 13.531-9.625 13.531-15.599-3.887-.442-7.077-2.01-9.57-4.702-2.494-2.692-3.74-5.808-3.74-9.348 0-3.761 1.228-6.933 3.685-9.514C38.2 1.291 41.262 0 44.929 0c4.107 0 7.645 1.678 10.616 5.034C58.515 8.389 60 12.464 60 17.258 60 31.64 52.043 42.888 36.129 51l-4.29-7.965z" clip-rule="evenodd"/>
    </g>
    <defs>
        <clipPath id="clip0">
            <path fill="#fff" d="M0 0H60V51H0z" transform="rotate(-180 30 25.5)"/>
        </clipPath>
    </defs>
</svg>
